<?xml version="1.0" encoding="UTF-8" standalone="no"?>
<!-- Created with Inkscape (http://www.inkscape.org/) -->

<svg
   xmlns:dc="http://purl.org/dc/elements/1.1/"
   xmlns:cc="http://creativecommons.org/ns#"
   xmlns:rdf="http://www.w3.org/1999/02/22-rdf-syntax-ns#"
   xmlns:svg="http://www.w3.org/2000/svg"
   xmlns="http://www.w3.org/2000/svg"
   xmlns:sodipodi="http://sodipodi.sourceforge.net/DTD/sodipodi-0.dtd"
   xmlns:inkscape="http://www.inkscape.org/namespaces/inkscape"
   id="svg2"
   version="1.1"
   inkscape:version="0.91 r13725"
   width="1080"
   height="1080"
   viewBox="0 0 1080 1080"
   sodipodi:docname="logo.svg">
  <metadata
     id="metadata8">
    <rdf:RDF>
      <cc:Work
         rdf:about="">
        <dc:format>image/svg+xml</dc:format>
        <dc:type
           rdf:resource="http://purl.org/dc/dcmitype/StillImage" />
        <dc:title></dc:title>
      </cc:Work>
    </rdf:RDF>
  </metadata>
  <defs
     id="defs6" />
  <sodipodi:namedview
     pagecolor="#ffffff"
     bordercolor="#666666"
     borderopacity="1"
     objecttolerance="10"
     gridtolerance="10"
     guidetolerance="10"
     inkscape:pageopacity="0"
     inkscape:pageshadow="2"
     inkscape:window-width="1366"
     inkscape:window-height="718"
     id="namedview4"
     showgrid="false"
     inkscape:zoom="0.34911243"
     inkscape:cx="503.84961"
     inkscape:cy="775.10073"
     inkscape:window-x="0"
     inkscape:window-y="26"
     inkscape:window-maximized="1"
     inkscape:current-layer="svg2" />
  <g
     id="g4215"
     transform="matrix(1.5932973,0,0,1.5932973,-262.27928,-305.54743)">
    <path
       sodipodi:nodetypes="cssssssccsscssssscssssscsscc"
       inkscape:connector-curvature="0"
       id="path4161"
       d="m 248.44286,444.10851 c -12.19796,8.86806 -14.38776,11.17161 -18.52671,19.48754 -2.58166,5.18702 -4.7098,13.21121 -4.72799,17.83137 -0.0484,12.28847 -0.17942,12.9563 -1.76008,8.90949 -1.39869,-3.58093 -1.51666,-3.52955 -4.37384,1.95983 -1.61473,3.10229 -8.05885,9.89288 -14.32009,15.0895 -14.01234,11.62976 -15.53709,15.77445 -8.51949,23.13604 8.34056,8.74939 20.40822,9.04576 36.08554,0.88323 l 7.66921,-3.99251 6.34975,8.74282 c 6.55876,9.0306 14.18174,15.18937 15.22574,9.56109 4.22942,-22.80107 26.18023,-36.27329 54.05999,-32.18879 4.47564,1.43221 -0.54691,-9.70014 -5.02255,-17.04018 -2.465,-4.04261 -4.37578,-3.46134 -12.7573,0.29574 -5.07766,2.27608 -16.21626,8.99745 -24.75303,14.93562 -14.32148,9.96199 -15.0341,10.28344 -9.21631,4.16007 6.1614,-6.48502 29.83097,-22.56867 37.6176,-25.56093 3.66126,-1.40696 3.58587,-1.96623 -1.18694,-8.62911 -4.68543,-6.54068 -4.7628,-7.01917 -0.96074,-5.86434 8.52079,2.58811 28.12264,-16.65819 25.79953,-25.33026 -2.34161,-8.74106 -13.01562,-16.67384 -21.62398,-16.07113 -3.38118,0.23674 -3.80969,1.11148 -3.04029,6.17145 2.51007,16.5078 -17.68905,48.54771 -41.5109,65.84909 -9.11189,6.6178 -28.75657,16.84946 -31.70435,16.51197 -1.02097,-0.11684 5.73123,-5.2954 15.00568,-11.50677 51.03518,-34.1796 70.65372,-87.63673 29.07683,-79.22952 -7.21993,1.45992 -11.85157,3.8668 -22.88532,11.88863 z"
       style="fill:#000000" />
    <g
       id="text4155"
       style="font-style:normal;font-weight:normal;font-size:12.5px;line-height:0%;font-family:sans-serif;letter-spacing:0px;word-spacing:0px;fill:#000000;fill-opacity:1;stroke:none;stroke-width:1px;stroke-linecap:butt;stroke-linejoin:miter;stroke-opacity:1">
      <path
         id="path4168"
         style="font-style:normal;font-variant:normal;font-weight:normal;font-stretch:normal;font-size:180px;font-family:'Hugs and Kisses xoxo Demo';-inkscape-font-specification:'Hugs and Kisses xoxo Demo'"
         d="m 462.62642,450.765 q 0.54,-0.54 2.88,-0.72 2.52,-0.18 4.86,0 2.52,0.18 3.96,0.72 1.62,0.54 0.54,1.62 -12.06,10.8 -21.06,29.7 -8.82,18.9 -13.68,44.64 -2.34,11.88 -3.42,23.76 -1.08,11.7 -0.9,22.32 0.36,10.62 1.98,19.98 1.62,9.36 4.32,16.38 7.02,18.54 20.88,19.08 0.36,0 0.54,0.18 0.36,0.36 0.18,0.72 0,0.9 -0.72,0.9 -10.8,0 -18.54,-6.66 -3.78,-3.06 -6.84,-7.38 -2.88,-4.32 -5.4,-10.08 -6.66,-15.48 -7.2,-37.98 -0.36,-10.8 0.54,-21.96 0.9,-11.34 2.88,-22.86 2.16,-11.52 5.4,-22.14 3.42,-10.8 7.56,-19.98 2.52,-5.4 5.22,-10.08 2.7,-4.68 5.58,-8.82 -6.3,5.58 -14.04,12.78 -7.56,7.2 -15.48,15.48 -7.92,8.28 -15.48,17.28 -7.56,8.82 -13.68,17.82 3.06,5.76 5.4,11.7 2.34,5.76 3.06,11.34 1.08,7.02 -0.9,12.6 -1.8,5.58 -5.94,9.36 -1.44,1.26 -3.78,2.16 -2.16,0.9 -4.68,1.26 -2.34,0.18 -4.68,-0.18 -2.16,-0.36 -3.42,-1.8 -2.7,-2.7 -2.52,-9 0.36,-6.48 3.6,-15.66 1.26,-3.24 2.88,-6.66 1.62,-3.42 3.6,-7.02 -3.24,-6.84 -7.74,-13.68 -4.32,-7.02 -8.82,-13.32 -0.54,-0.72 -1.08,-1.26 -0.36,-0.72 -0.72,-1.44 -2.16,7.38 -5.04,15.3 -2.88,7.74 -6.48,15.48 -8.1,18.18 -18,29.88 -11.88,13.86 -25.2,18.18 -13.14,4.32 -23.94,1.8 -10.08,-2.16 -16.02,-9.54 -3.42,-3.96 -5.4,-8.82 -1.98,-4.86 -2.52,-10.08 -0.36,-5.22 0.54,-10.44 1.08,-5.4 3.78,-10.26 3.06,-5.22 7.38,-9.18 4.5,-4.14 10.26,-6.66 13.14,-5.58 31.86,-2.34 0.72,0 0.72,1.08 -0.54,0.9 -1.08,0.72 -9.9,-1.62 -17.64,1.26 -7.56,2.7 -12.78,8.1 -5.22,5.4 -7.92,12.42 -2.7,6.84 -2.52,13.5 0,6.48 2.7,12.42 2.7,5.76 7.38,9.72 4.68,3.96 10.98,5.4 6.3,1.26 13.68,-0.9 7.56,-2.34 13.86,-7.56 6.48,-5.22 11.7,-11.7 5.22,-6.48 9.36,-13.68 4.14,-7.38 7.2,-14.04 3.6,-8.1 6.48,-16.2 3.06,-8.28 5.04,-15.84 -4.86,-7.2 -8.82,-13.68 -3.78,-6.66 -4.86,-12.24 -1.44,-8.82 0.9,-15.3 1.8,-5.94 6.3,-8.82 4.86,-2.88 8.64,-0.18 1.98,1.08 3.24,3.42 1.26,2.16 1.62,4.68 0.72,3.06 0.9,7.2 0.18,3.96 -0.54,8.64 -0.36,3.06 -0.9,6.66 -0.54,3.42 -1.44,7.56 1.98,3.6 4.5,7.56 2.7,3.96 5.4,8.1 2.88,4.5 5.76,9 3.06,4.5 5.58,9.18 4.5,-6.3 10.08,-13.14 5.58,-6.84 12.42,-14.4 6.66,-7.38 13.5,-14.22 7.02,-6.84 13.32,-12.6 6.48,-5.94 11.7,-10.62 5.4,-4.68 9.18,-7.92 z m -90.72,24.48 q 1.08,-10.8 -0.54,-15.3 -1.44,-4.68 -3.42,-4.14 -1.8,0.54 -3.06,5.76 -1.26,5.22 0.36,14.04 0.72,2.7 1.8,5.76 1.08,2.88 2.7,5.94 1.62,-6.66 2.16,-12.06 z m 9.36,72.72 q -3.6,10.08 -3.6,15.48 0.18,5.4 2.16,7.2 0.9,0.9 1.98,0.72 1.26,-0.18 1.98,-0.54 1.44,-0.72 2.88,-2.34 1.62,-1.8 2.88,-4.68 1.26,-2.88 1.62,-6.66 0.54,-3.78 -0.18,-8.46 -0.36,-3.24 -1.44,-6.48 -0.9,-3.24 -2.34,-6.66 -1.8,3.24 -3.24,6.3 -1.44,3.06 -2.7,6.12 z"
         inkscape:connector-curvature="0" />
      <path
         id="path4170"
         style="font-style:normal;font-variant:normal;font-weight:normal;font-stretch:normal;font-size:180px;font-family:'Hugs and Kisses xoxo Demo';-inkscape-font-specification:'Hugs and Kisses xoxo Demo'"
         d="m 524.02892,547.245 q 1.08,0.72 0.54,1.44 -1.62,3.42 -4.5,9.36 -2.7,5.94 -6.12,11.88 -3.42,5.76 -7.02,10.08 -3.42,4.14 -6.3,4.14 -3.06,0 -5.04,-2.34 -1.98,-2.34 -3.06,-6.3 -1.08,-4.14 -1.44,-9.18 -0.36,-5.22 0,-10.98 -1.98,6.3 -4.32,11.34 -2.34,5.04 -4.86,8.64 -0.9,1.26 -2.34,2.88 -1.26,1.44 -3.06,2.88 -1.62,1.44 -3.78,2.52 -1.98,0.9 -4.32,0.9 -5.4,0 -8.46,-3.42 -3.06,-3.42 -4.5,-8.46 -1.44,-5.22 -1.44,-11.16 -0.18,-6.12 0.54,-11.34 1.08,-7.38 3.06,-13.68 2.16,-6.48 5.4,-11.16 3.42,-4.68 7.92,-7.2 4.5,-2.7 10.44,-2.7 3.96,0 7.74,1.8 3.96,1.8 7.38,4.86 1.44,-4.68 2.88,-5.58 1.8,-1.26 4.32,-1.08 2.7,0 4.86,0.72 2.16,0.72 3.42,1.62 1.26,0.9 0.72,1.44 -1.26,1.08 -2.88,5.76 -1.62,4.68 -3.24,11.16 -1.44,6.48 -2.7,13.68 -1.26,7.2 -1.8,13.5 -0.54,6.12 -0.18,10.44 0.54,4.32 2.34,4.68 1.98,0.36 6.3,-6.66 4.32,-7.02 12.24,-23.94 0.36,-0.9 1.26,-0.54 z m -51.84,32.58 q 2.52,0.72 5.22,-1.8 2.7,-2.7 5.22,-7.38 2.52,-4.86 4.86,-11.16 2.34,-6.48 4.32,-13.5 0.72,-6.3 1.62,-12.06 1.08,-5.76 2.34,-9.9 -1.98,-1.8 -4.86,-3.78 -2.7,-2.16 -4.86,-2.16 -2.88,0 -5.58,2.7 -2.7,2.52 -5.04,7.02 -2.16,4.32 -3.96,10.26 -1.62,5.76 -2.52,12.24 -0.72,5.22 -0.9,10.26 -0.18,5.04 0.18,9.18 0.36,4.14 1.26,7.02 1.08,2.7 2.7,3.06 z"
         inkscape:connector-curvature="0" />
      <path
         id="path4172"
         style="font-style:normal;font-variant:normal;font-weight:normal;font-stretch:normal;font-size:180px;font-family:'Hugs and Kisses xoxo Demo';-inkscape-font-specification:'Hugs and Kisses xoxo Demo'"
         d="m 582.52892,547.245 q 1.26,0.72 0.54,1.44 -1.62,3.42 -4.5,9.54 -2.7,5.94 -6.12,11.88 -3.42,5.94 -7.02,10.26 -3.6,4.14 -6.48,4.14 -6.3,-0.18 -7.02,-10.44 -0.72,-10.26 3.42,-32.76 1.98,-12.42 2.7,-17.64 0.9,-5.4 -0.9,-5.4 -1.8,-0.18 -5.04,4.32 -3.06,4.5 -6.3,11.34 -2.16,4.14 -3.96,9 -1.62,4.68 -3.6,9.54 -1.26,3.06 -2.16,7.56 -0.9,4.5 -1.8,9.18 -0.9,4.5 -1.98,8.46 -1.08,3.96 -2.52,5.76 -1.44,1.98 -3.6,2.16 -2.16,0.18 -4.14,-0.54 -1.98,-0.72 -3.06,-1.62 -1.26,-1.08 -0.9,-1.62 1.08,-1.26 1.8,-6.3 0.72,-5.04 1.44,-11.88 0.72,-7.02 1.44,-14.94 0.72,-7.92 1.44,-14.58 0.72,-6.84 1.8,-11.7 1.08,-4.86 2.34,-5.76 1.62,-1.26 4.14,-1.26 2.52,-0.18 4.86,0.54 2.34,0.54 3.6,1.62 1.44,0.9 0.9,1.62 -1.44,1.8 -2.7,6.66 -1.26,4.68 -2.34,10.8 -0.9,6.12 -1.98,12.78 -0.9,6.48 -1.8,11.52 2.34,-7.38 5.22,-15.3 3.06,-8.1 6.48,-14.76 3.42,-6.84 7.02,-11.16 3.6,-4.5 7.2,-4.5 6.12,-0.18 8.46,4.32 2.34,4.5 2.34,11.34 0.18,6.84 -1.26,14.94 -1.44,8.1 -3.06,15.12 -1.62,6.84 -2.7,11.7 -1.08,4.86 0,5.22 1.8,0.54 6.12,-6.48 4.5,-7.2 12.42,-23.58 0.54,-0.72 1.26,-0.54 z"
         inkscape:connector-curvature="0" />
      <path
         id="path4174"
         style="font-style:normal;font-variant:normal;font-weight:normal;font-stretch:normal;font-size:180px;font-family:'Hugs and Kisses xoxo Demo';-inkscape-font-specification:'Hugs and Kisses xoxo Demo'"
         d="m 649.8883,547.245 q 1.08,0.72 0.54,1.44 -1.62,3.42 -4.5,9.36 -2.7,5.94 -6.12,11.88 -3.42,5.76 -7.02,10.08 -3.42,4.14 -6.3,4.14 -3.06,0 -5.04,-2.34 -1.98,-2.34 -3.06,-6.3 -1.08,-4.14 -1.44,-9.18 -0.36,-5.22 0,-10.98 -1.98,6.3 -4.32,11.34 -2.34,5.04 -4.86,8.64 -0.9,1.26 -2.34,2.88 -1.26,1.44 -3.06,2.88 -1.62,1.44 -3.78,2.52 -1.98,0.9 -4.32,0.9 -5.4,0 -8.46,-3.42 -3.06,-3.42 -4.5,-8.46 -1.44,-5.22 -1.44,-11.16 -0.18,-6.12 0.54,-11.34 1.08,-7.38 3.06,-13.68 2.16,-6.48 5.4,-11.16 3.42,-4.68 7.92,-7.2 4.5,-2.7 10.44,-2.7 3.96,0 7.74,1.8 3.96,1.8 7.38,4.86 1.44,-4.68 2.88,-5.58 1.8,-1.26 4.32,-1.08 2.7,0 4.86,0.72 2.16,0.72 3.42,1.62 1.26,0.9 0.72,1.44 -1.26,1.08 -2.88,5.76 -1.62,4.68 -3.24,11.16 -1.44,6.48 -2.7,13.68 -1.26,7.2 -1.8,13.5 -0.54,6.12 -0.18,10.44 0.54,4.32 2.34,4.68 1.98,0.36 6.3,-6.66 4.32,-7.02 12.24,-23.94 0.36,-0.9 1.26,-0.54 z m -51.84,32.58 q 2.52,0.72 5.22,-1.8 2.7,-2.7 5.22,-7.38 2.52,-4.86 4.86,-11.16 2.34,-6.48 4.32,-13.5 0.72,-6.3 1.62,-12.06 1.08,-5.76 2.34,-9.9 -1.98,-1.8 -4.86,-3.78 -2.7,-2.16 -4.86,-2.16 -2.88,0 -5.58,2.7 -2.7,2.52 -5.04,7.02 -2.16,4.32 -3.96,10.26 -1.62,5.76 -2.52,12.24 -0.72,5.22 -0.9,10.26 -0.18,5.04 0.18,9.18 0.36,4.14 1.26,7.02 1.08,2.7 2.7,3.06 z"
         inkscape:connector-curvature="0" />
      <path
         id="path4176"
         style="font-style:normal;font-variant:normal;font-weight:normal;font-stretch:normal;font-size:180px;font-family:'Hugs and Kisses xoxo Demo';-inkscape-font-specification:'Hugs and Kisses xoxo Demo'"
         d="m 718.1083,547.245 q 0.72,0.72 0.54,1.26 -3.6,8.1 -5.94,14.4 -2.34,6.12 -5.04,11.34 -2.52,5.04 -6.12,9.54 -3.42,4.5 -9.36,9.18 -0.9,4.32 -1.44,8.64 -0.36,4.5 -1.44,8.64 -0.9,4.32 -2.7,8.1 -1.8,3.96 -5.22,7.02 -3.06,2.7 -5.94,3.6 -2.88,0.9 -5.04,0.9 l -0.54,0 q -2.52,0 -5.58,-0.9 0,0 -0.18,-0.18 -2.52,-0.9 -4.32,-2.7 -1.62,-1.62 -2.16,-3.96 -1.08,-4.14 1.62,-8.46 3.42,-4.86 10.8,-8.82 4.32,-2.34 8.1,-4.86 0.9,-8.28 1.8,-18.18 1.08,-10.08 2.52,-20.34 -1.62,4.32 -3.42,7.74 -1.62,3.42 -3.42,6.12 -0.9,1.26 -2.34,2.88 -1.26,1.44 -3.06,2.88 -1.62,1.44 -3.78,2.52 -1.98,0.9 -4.32,0.9 -5.4,0 -8.46,-3.42 -3.06,-3.42 -4.5,-8.46 -1.44,-5.22 -1.44,-11.16 -0.18,-6.12 0.54,-11.34 1.08,-7.38 3.06,-13.68 2.16,-6.48 5.4,-11.16 3.42,-4.68 7.92,-7.2 4.5,-2.7 10.44,-2.7 3.78,0 7.74,1.8 3.96,1.8 7.2,4.86 1.8,-4.32 3.24,-5.58 1.44,-1.08 3.96,-1.08 2.52,0 4.86,0.54 2.34,0.54 3.78,1.62 1.44,0.9 0.72,1.62 -1.8,1.98 -3.42,9.18 -1.62,7.2 -3.24,17.28 -1.62,10.08 -3.42,21.96 -1.8,11.7 -3.78,22.68 5.4,-3.96 8.64,-8.28 3.24,-4.5 5.58,-9.54 2.34,-5.22 4.5,-11.16 2.16,-6.12 5.4,-13.5 0.36,-0.9 1.26,-0.54 z m -34.2,3.96 q 1.26,-8.28 2.52,-15.3 1.44,-7.2 3.06,-12.06 -1.98,-1.8 -4.86,-3.78 -2.88,-1.98 -4.86,-1.98 -2.88,0 -5.58,2.7 -2.7,2.52 -5.04,7.02 -2.16,4.32 -3.96,10.26 -1.62,5.76 -2.52,12.24 -0.72,5.22 -0.9,10.26 -0.18,5.04 0.18,9.18 0.36,4.14 1.26,7.02 1.08,2.7 2.7,3.06 2.16,0.54 4.5,-1.44 2.52,-2.16 4.86,-6.12 2.34,-3.96 4.5,-9.36 2.34,-5.4 4.14,-11.7 z m -24.66,70.38 q 0.54,1.98 1.8,3.42 1.44,1.44 3.78,1.62 3.42,0.18 5.76,-2.34 2.34,-2.34 3.78,-6.12 1.44,-3.6 2.16,-7.92 0.9,-4.32 1.26,-7.92 -1.62,1.08 -3.42,1.98 -1.62,1.08 -3.42,1.98 -6.66,3.6 -9.72,7.56 -2.88,4.14 -1.98,7.74 z"
         inkscape:connector-curvature="0" />
      <path
         id="path4178"
         style="font-style:normal;font-variant:normal;font-weight:normal;font-stretch:normal;font-size:180px;font-family:'Hugs and Kisses xoxo Demo';-inkscape-font-specification:'Hugs and Kisses xoxo Demo'"
         d="m 767.41142,547.785 q 0.72,-1.08 1.44,-0.36 0.9,0.54 0.36,1.26 -2.16,4.5 -6.12,10.8 -3.78,6.3 -8.64,12.06 -4.68,5.58 -10.08,9.36 -5.4,3.78 -10.8,3.42 -5.94,-0.54 -9.72,-3.06 -3.78,-2.7 -5.94,-6.66 -1.98,-4.14 -2.52,-9.18 -0.54,-5.22 0.18,-10.98 0.9,-7.74 3.42,-15.3 2.7,-7.74 7.02,-13.32 4.5,-5.76 10.62,-8.64 6.12,-3.06 13.86,-1.44 4.5,0.9 4.86,5.04 0.36,3.96 -1.44,8.82 -1.62,3.96 -4.14,8.1 -2.52,3.96 -5.76,7.38 -3.06,3.42 -6.66,5.94 -3.6,2.34 -7.2,2.88 0,0 -0.18,1.44 -0.18,1.44 -0.36,3.24 0,1.8 -0.18,3.6 -0.18,1.62 -0.18,2.16 -0.18,2.16 0,5.04 0.18,2.88 0.9,5.58 0.72,2.7 1.98,4.68 1.26,1.98 3.24,2.16 4.14,0.54 9,-3.42 4.86,-3.96 9.36,-9.54 4.68,-5.76 8.28,-11.7 3.6,-5.94 5.4,-9.36 z m -37.08,3.96 q 2.34,-0.54 4.68,-1.98 1.98,-1.26 4.5,-3.24 2.7,-2.16 5.58,-5.58 1.08,-1.44 3.24,-5.04 2.16,-3.6 3.6,-7.38 1.44,-3.96 1.26,-7.02 -0.18,-3.06 -3.6,-3.42 -1.98,-0.18 -4.14,1.44 -1.98,1.62 -3.96,4.32 -1.98,2.52 -3.78,5.58 -1.62,3.06 -2.7,5.58 -1.26,2.88 -2.16,5.76 -0.72,2.88 -1.26,5.4 -0.72,2.88 -1.26,5.58 z"
         inkscape:connector-curvature="0" />
      <path
         id="path4180"
         style="font-style:normal;font-variant:normal;font-weight:normal;font-stretch:normal;font-size:180px;font-family:'Hugs and Kisses xoxo Demo';-inkscape-font-specification:'Hugs and Kisses xoxo Demo'"
         d="m 799.49642,541.305 q 0,-0.18 1.08,-1.8 1.26,-1.62 1.98,-6.66 0.36,-2.34 0.54,-4.68 0.18,-2.52 0,-4.5 0,-2.16 -0.36,-3.6 -0.18,-1.44 -0.9,-1.8 -0.9,-0.36 -2.16,0.72 -1.26,1.08 -2.7,3.24 -1.44,2.16 -3.24,5.22 -1.62,3.06 -3.24,6.48 -2.16,4.14 -3.96,9 -1.62,4.68 -3.6,9.54 -1.26,3.06 -2.16,7.56 -0.9,4.5 -1.8,9.18 -0.9,4.5 -1.98,8.46 -1.08,3.96 -2.52,5.76 -1.44,1.98 -3.6,2.16 -2.16,0.18 -4.14,-0.54 -1.98,-0.72 -3.06,-1.62 -1.26,-1.08 -0.9,-1.62 1.08,-1.26 1.8,-6.3 0.72,-5.04 1.44,-11.88 0.72,-7.02 1.44,-14.94 0.72,-7.92 1.44,-14.58 0.72,-6.84 1.8,-11.7 1.08,-4.86 2.34,-5.76 1.62,-1.26 4.14,-1.26 2.52,-0.18 4.86,0.54 2.34,0.54 3.6,1.62 1.44,0.9 0.9,1.62 -1.44,1.8 -2.7,6.66 -1.26,4.68 -2.34,10.8 -0.9,6.12 -1.98,12.78 -0.9,6.48 -1.8,11.52 2.34,-7.38 5.22,-15.48 2.88,-8.1 6.3,-14.76 3.42,-6.84 7.2,-11.16 3.78,-4.5 7.74,-4.5 4.86,0 7.2,2.7 2.34,2.52 3.06,6.12 0.9,3.42 0.18,7.2 -0.54,3.78 -1.62,6.48 -1.26,2.88 -3.6,3.96 -2.16,1.08 -4.5,1.26 -2.16,0 -3.78,-0.54 -1.62,-0.54 -1.62,-0.9 z"
         inkscape:connector-curvature="0" />
    </g>
    <g
       id="text4163"
       style="font-style:normal;font-weight:normal;font-size:12.5px;line-height:0%;font-family:sans-serif;letter-spacing:0px;word-spacing:0px;fill:#000000;fill-opacity:1;stroke:#000000;stroke-width:0.62762928px;stroke-linecap:butt;stroke-linejoin:miter;stroke-opacity:1">
      <path
         id="path4183"
         style="font-style:normal;font-variant:normal;font-weight:200;font-stretch:normal;font-size:22.5px;font-family:'TT Corals Thin DEMO';-inkscape-font-specification:'TT Corals Thin DEMO Ultra-Light';stroke:#000000;stroke-width:0.62762928px"
         d="m 450.42397,610.95038 7.875,0 0,-0.45 -7.425,0 0,-15.3 -0.45,0 0,15.75 z"
         inkscape:connector-curvature="0" />
      <path
         id="path4185"
         style="font-style:normal;font-variant:normal;font-weight:200;font-stretch:normal;font-size:22.5px;font-family:'TT Corals Thin DEMO';-inkscape-font-specification:'TT Corals Thin DEMO Ultra-Light';stroke:#000000;stroke-width:0.62762928px"
         d="m 460.77397,603.07538 c 0,5.0625 3.0375,8.1 6.075,8.1 3.0375,0 6.075,-3.0375 6.075,-8.1 0,-5.0625 -3.0375,-8.1 -6.075,-8.1 -3.0375,0 -6.075,3.0375 -6.075,8.1 z m 0.45,0 c 0,-4.8375 2.8125,-7.65 5.625,-7.65 2.8125,0 5.625,2.8125 5.625,7.65 0,4.8375 -2.8125,7.65 -5.625,7.65 -2.8125,0 -5.625,-2.8125 -5.625,-7.65 z"
         inkscape:connector-curvature="0" />
      <path
         id="path4187"
         style="font-style:normal;font-variant:normal;font-weight:200;font-stretch:normal;font-size:22.5px;font-family:'TT Corals Thin DEMO';-inkscape-font-specification:'TT Corals Thin DEMO Ultra-Light';stroke:#000000;stroke-width:0.62762928px"
         d="m 480.56694,610.95038 0.5625,0 5.175,-15.75 -0.45,0 -4.95,15.075 -0.1125,0 -4.95,-15.075 -0.45,0 5.175,15.75 z"
         inkscape:connector-curvature="0" />
      <path
         id="path4189"
         style="font-style:normal;font-variant:normal;font-weight:200;font-stretch:normal;font-size:22.5px;font-family:'TT Corals Thin DEMO';-inkscape-font-specification:'TT Corals Thin DEMO Ultra-Light';stroke:#000000;stroke-width:0.62762928px"
         d="m 489.66714,610.95038 8.1,0 0,-0.45 -7.65,0 0,-9.9 6.3,0 0,-0.45 -6.3,0 0,-4.5 7.2,0 0,-0.45 -7.65,0 0,15.75 z"
         inkscape:connector-curvature="0" />
      <path
         id="path4191"
         style="font-style:normal;font-variant:normal;font-weight:200;font-stretch:normal;font-size:22.5px;font-family:'TT Corals Thin DEMO';-inkscape-font-specification:'TT Corals Thin DEMO Ultra-Light';stroke:#000000;stroke-width:0.62762928px"
         d="m 507.89038,610.95038 0.45,0 0,-8.325 4.95,-7.425 -0.5625,0 -4.5675,6.8625 -0.09,0 -4.5675,-6.8625 -0.5625,0 4.95,7.425 0,8.325 z"
         inkscape:connector-curvature="0" />
      <path
         id="path4193"
         style="font-style:normal;font-variant:normal;font-weight:200;font-stretch:normal;font-size:22.5px;font-family:'TT Corals Thin DEMO';-inkscape-font-specification:'TT Corals Thin DEMO Ultra-Light';stroke:#000000;stroke-width:0.62762928px"
         d="m 515.52983,603.07538 c 0,5.0625 3.0375,8.1 6.075,8.1 3.0375,0 6.075,-3.0375 6.075,-8.1 0,-5.0625 -3.0375,-8.1 -6.075,-8.1 -3.0375,0 -6.075,3.0375 -6.075,8.1 z m 0.45,0 c 0,-4.8375 2.8125,-7.65 5.625,-7.65 2.8125,0 5.625,2.8125 5.625,7.65 0,4.8375 -2.8125,7.65 -5.625,7.65 -2.8125,0 -5.625,-2.8125 -5.625,-7.65 z"
         inkscape:connector-curvature="0" />
      <path
         id="path4195"
         style="font-style:normal;font-variant:normal;font-weight:200;font-stretch:normal;font-size:22.5px;font-family:'TT Corals Thin DEMO';-inkscape-font-specification:'TT Corals Thin DEMO Ultra-Light';stroke:#000000;stroke-width:0.62762928px"
         d="m 541.3978,605.77538 c 0,3.15 -1.8,4.95 -4.6125,4.95 -2.8125,0 -4.6125,-1.8 -4.6125,-4.95 l 0,-10.575 -0.45,0 0,10.575 c 0,3.375 2.025,5.4 5.0625,5.4 3.0375,0 5.0625,-2.025 5.0625,-5.4 l 0,-10.575 -0.45,0 0,10.575 z"
         inkscape:connector-curvature="0" />
      <path
         id="path4197"
         style="font-style:normal;font-variant:normal;font-weight:200;font-stretch:normal;font-size:22.5px;font-family:'TT Corals Thin DEMO';-inkscape-font-specification:'TT Corals Thin DEMO Ultra-Light';stroke:#000000;stroke-width:0.62762928px"
         d="m 556.58354,610.95038 0.5625,0 -3.825,-5.7375 0,-0.1125 c 0,0 3.825,-1.0125 3.825,-4.95 0,-2.925 -2.25,-5.175 -5.7375,-5.175 -3.0375,0 -4.6125,0.675 -4.6125,0.675 l 0,15.3 0.45,0 0,-5.625 5.625,0 3.7125,5.625 z m 0.1125,-10.8 c 0,2.5875 -2.025,4.725 -5.0625,4.725 l -4.3875,0 0,-8.8875 c 0,0 1.35,-0.5625 4.1625,-0.5625 3.2625,0 5.2875,2.025 5.2875,4.725 z"
         inkscape:connector-curvature="0" />
      <path
         id="path4199"
         style="font-style:normal;font-variant:normal;font-weight:200;font-stretch:normal;font-size:22.5px;font-family:'TT Corals Thin DEMO';-inkscape-font-specification:'TT Corals Thin DEMO Ultra-Light';stroke:#000000;stroke-width:0.62762928px"
         d="m 574.71362,606.45038 c 0,-3.7125 -3.4875,-4.275 -3.4875,-4.275 l 0,-0.1125 c 0,0 2.3625,-0.675 2.3625,-3.375 0,-2.1375 -1.575,-3.7125 -4.725,-3.7125 -2.5875,0 -4.05,0.675 -4.05,0.675 l 0,15.3 5.0625,0 c 2.925,0 4.8375,-1.9125 4.8375,-4.5 z m -0.45,0 c 0,2.3625 -1.6875,4.05 -4.3875,4.05 l -4.6125,0 0,-8.1 4.6125,0 c 2.7,0 4.3875,1.6875 4.3875,4.05 z m -9,-4.5 0,-5.9625 c 0,0 1.2375,-0.5625 3.6,-0.5625 2.925,0 4.275,1.35 4.275,3.2625 0,1.9125 -1.35,3.2625 -3.6,3.2625 l -4.275,0 z"
         inkscape:connector-curvature="0" />
      <path
         id="path4201"
         style="font-style:normal;font-variant:normal;font-weight:200;font-stretch:normal;font-size:22.5px;font-family:'TT Corals Thin DEMO';-inkscape-font-specification:'TT Corals Thin DEMO Ultra-Light';stroke:#000000;stroke-width:0.62762928px"
         d="m 588.19956,605.77538 c 0,3.15 -1.8,4.95 -4.6125,4.95 -2.8125,0 -4.6125,-1.8 -4.6125,-4.95 l 0,-10.575 -0.45,0 0,10.575 c 0,3.375 2.025,5.4 5.0625,5.4 3.0375,0 5.0625,-2.025 5.0625,-5.4 l 0,-10.575 -0.45,0 0,10.575 z"
         inkscape:connector-curvature="0" />
      <path
         id="path4203"
         style="font-style:normal;font-variant:normal;font-weight:200;font-stretch:normal;font-size:22.5px;font-family:'TT Corals Thin DEMO';-inkscape-font-specification:'TT Corals Thin DEMO Ultra-Light';stroke:#000000;stroke-width:0.62762928px"
         d="m 601.4728,606.78788 c 0,-5.5125 -7.875,-3.9375 -7.875,-8.1 0,-1.9125 1.35,-3.2625 3.375,-3.2625 2.5875,0 3.6,2.25 3.6,2.25 l 0.3375,-0.3375 c 0,0 -1.2375,-2.3625 -3.9375,-2.3625 -2.25,0 -3.825,1.575 -3.825,3.7125 0,4.6125 7.875,3.0375 7.875,8.1 0,2.25 -1.6875,3.9375 -4.05,3.9375 -2.8125,0 -4.3875,-2.7 -4.3875,-2.7 l -0.3375,0.225 c 0,0 1.575,2.925 4.725,2.925 2.5875,0 4.5,-1.9125 4.5,-4.3875 z"
         inkscape:connector-curvature="0" />
      <path
         id="path4205"
         style="font-style:normal;font-variant:normal;font-weight:200;font-stretch:normal;font-size:22.5px;font-family:'TT Corals Thin DEMO';-inkscape-font-specification:'TT Corals Thin DEMO Ultra-Light';stroke:#000000;stroke-width:0.62762928px"
         d="m 605.50698,610.95038 0.45,0 0,-15.75 -0.45,0 0,15.75 z"
         inkscape:connector-curvature="0" />
      <path
         id="path4207"
         style="font-style:normal;font-variant:normal;font-weight:200;font-stretch:normal;font-size:22.5px;font-family:'TT Corals Thin DEMO';-inkscape-font-specification:'TT Corals Thin DEMO Ultra-Light';stroke:#000000;stroke-width:0.62762928px"
         d="m 620.58726,610.95038 0.45,0 0,-15.75 -0.45,0 0,14.625 -0.1125,0 -9.1125,-14.625 -0.45,0 0,15.75 0.45,0 0,-14.625 0.1125,0 9.1125,14.625 z"
         inkscape:connector-curvature="0" />
      <path
         id="path4209"
         style="font-style:normal;font-variant:normal;font-weight:200;font-stretch:normal;font-size:22.5px;font-family:'TT Corals Thin DEMO';-inkscape-font-specification:'TT Corals Thin DEMO Ultra-Light';stroke:#000000;stroke-width:0.62762928px"
         d="m 625.9855,610.95038 8.1,0 0,-0.45 -7.65,0 0,-9.9 6.3,0 0,-0.45 -6.3,0 0,-4.5 7.2,0 0,-0.45 -7.65,0 0,15.75 z"
         inkscape:connector-curvature="0" />
      <path
         id="path4211"
         style="font-style:normal;font-variant:normal;font-weight:200;font-stretch:normal;font-size:22.5px;font-family:'TT Corals Thin DEMO';-inkscape-font-specification:'TT Corals Thin DEMO Ultra-Light';stroke:#000000;stroke-width:0.62762928px"
         d="m 645.33022,606.78788 c 0,-5.5125 -7.875,-3.9375 -7.875,-8.1 0,-1.9125 1.35,-3.2625 3.375,-3.2625 2.5875,0 3.6,2.25 3.6,2.25 l 0.3375,-0.3375 c 0,0 -1.2375,-2.3625 -3.9375,-2.3625 -2.25,0 -3.825,1.575 -3.825,3.7125 0,4.6125 7.875,3.0375 7.875,8.1 0,2.25 -1.6875,3.9375 -4.05,3.9375 -2.8125,0 -4.3875,-2.7 -4.3875,-2.7 l -0.3375,0.225 c 0,0 1.575,2.925 4.725,2.925 2.5875,0 4.5,-1.9125 4.5,-4.3875 z"
         inkscape:connector-curvature="0" />
      <path
         id="path4213"
         style="font-style:normal;font-variant:normal;font-weight:200;font-stretch:normal;font-size:22.5px;font-family:'TT Corals Thin DEMO';-inkscape-font-specification:'TT Corals Thin DEMO Ultra-Light';stroke:#000000;stroke-width:0.62762928px"
         d="m 657.2394,606.78788 c 0,-5.5125 -7.875,-3.9375 -7.875,-8.1 0,-1.9125 1.35,-3.2625 3.375,-3.2625 2.5875,0 3.6,2.25 3.6,2.25 l 0.3375,-0.3375 c 0,0 -1.2375,-2.3625 -3.9375,-2.3625 -2.25,0 -3.825,1.575 -3.825,3.7125 0,4.6125 7.875,3.0375 7.875,8.1 0,2.25 -1.6875,3.9375 -4.05,3.9375 -2.8125,0 -4.3875,-2.7 -4.3875,-2.7 l -0.3375,0.225 c 0,0 1.575,2.925 4.725,2.925 2.5875,0 4.5,-1.9125 4.5,-4.3875 z"
         inkscape:connector-curvature="0" />
    </g>
  </g>
</svg>
